<svg width="128" height="128" viewBox="0 0 64 64" fill="none" xmlns="http://www.w3.org/2000/svg">
  <circle cx="32" cy="32" r="32" fill="#0B0D1A"/>
  <g transform="translate(10, 10) scale(0.9)">
    <path d="M39.04 10c0 0-.44-1.15-1.34-1.6-.9-.45-2.26-.26-2.26-.26 0 0-.33-1.41-3.71-1.28-3.38.14-5.01.53-6.34-.36-1.33-.89-1.37-1.34-1.48-1.27-.1.07-.4 1.11.71 2.52 1.22 1.5 3.62 1.38 3.62 1.38s-1.01 1.02-2.43 1.08c-1.42.06-2.12-.22-2.12-.22s.69 1.29 1.7 1.49c1.01.2 2.21-.25 2.21-.25s-1.48 1.67-1.08 3.53c.45 2.09 2.49 2.65 7.02 5.6 5.49 3.58 5.04 7.57 4.94 8.62-.1 1.05-.66 2.44-.04 1.82.62-.62 3.02-4.32 2.18-7.73-.85-3.41-3.33-5.02-4.35-5.89-1.02-.87-2.83-2.93-1.73-5.06C33.65 9.95 39.04 10 39.04 10Z" fill="url(#fenixFix)"/>
    <path d="M34.5 22.51s-1.29-1.84-8.13-4.96c-7.07-3.23-9.86-7.5-10.52-10.34-.66-2.84-.55-5.4-.27-6.1.29-.7.76-1.53-.06-.87-.82.67-3.93 2.96-4.87 6.99-.94 4.03 1.23 6.63 2.61 8.13 1.38 1.5 3.57 2.6 3.57 2.6s-1.8.4-4.88-1.86C8.13 13.84 7.16 11.1 7.16 11.1s-1.6 3.63 0 8.65c1.6 5.01 6.07 6.05 8.96 6.26 2.88.21 3.81-.13 3.81-.13s-1.68 1.21-4.19 1.39c-2.52.17-5.45-.7-5.45-.7s2.07 2.75 6.08 3.94c4.01 1.18 7.5.54 11.76-1.38 4.27-1.92 5.37-6.61 5.37-6.61Z" fill="url(#fenixFix)"/>
  </g>
  <defs>
    <linearGradient id="fenixFix" x1="7" y1="0" x2="41" y2="31" gradientUnits="userSpaceOnUse">
      <stop stop-color="#EF8A25"/>
      <stop offset="0.81" stop-color="#DA2030"/>
    </linearGradient>
  </defs>
</svg>
